<?xml version="1.0" encoding="utf-8"?>
<!-- Generator: Adobe Illustrator 25.2.0, SVG Export Plug-In . SVG Version: 6.00 Build 0)  -->
<svg version="1.1" id="Layer_1" xmlns="http://www.w3.org/2000/svg" xmlns:xlink="http://www.w3.org/1999/xlink" x="0px" y="0px"
	 viewBox="0 0 1060 458" style="enable-background:new 0 0 1060 458;" xml:space="preserve">
<style type="text/css">
	.st0{fill:url(#XMLID_2_);}
	.st1{fill:url(#XMLID_3_);}
	.st2{fill:#3B3441;}
	.st3{fill:url(#XMLID_4_);}
</style>
<g id="XMLID_83_">
	<g id="XMLID_84_">
		<linearGradient id="XMLID_2_" gradientUnits="userSpaceOnUse" x1="358.8552" y1="122.7493" x2="358.8552" y2="6.8806">
			<stop  offset="0" style="stop-color:#174A77"/>
			<stop  offset="1" style="stop-color:#6CBCB6"/>
		</linearGradient>
		<path id="XMLID_85_" class="st0" d="M399.4,72.5c-0.7,0-1.4,0.6-1.4,1.4v8.4l-23.6,9c-2.8-31.5-8.1-84.4-15.6-84.4
			c-7.5,0-12.8,52.9-15.6,84.4l-23.6-9v-8.4c0-0.7-0.6-1.4-1.4-1.4c-0.7,0-1.4,0.6-1.4,1.4v11.4c0,0.5,0.3,0.9,0.6,1.1l21.4,27.4
			l2.6-1.9c-0.5,6.6-0.7,10.7-0.7,10.7l11.6-9l5.6,1.6v-30h1.8v30l5.6-1.6l11.6,9c0,0-0.2-4.1-0.7-10.7l2.6,1.9l21.4-27.4
			c0.4-0.2,0.6-0.7,0.6-1.1V73.9C400.8,73.1,400.2,72.5,399.4,72.5z M358.9,59.4c-3.5,0-6.3-4.3-6.3-9.7s2.8-9.7,6.3-9.7
			c3.5,0,6.3,4.3,6.3,9.7S362.3,59.4,358.9,59.4z"/>
		<linearGradient id="XMLID_3_" gradientUnits="userSpaceOnUse" x1="279.1718" y1="227.0478" x2="279.1718" y2="450.7345">
			<stop  offset="0" style="stop-color:#174A77"/>
			<stop  offset="1" style="stop-color:#6CBCB6"/>
		</linearGradient>
		<path id="XMLID_88_" class="st1" d="M341.8,269.9c-4.8-2.8-10.3-4.4-16.3-4.4c-6,0-11.6,1.7-16.3,4.5c0-0.3,0-0.6,0-0.9
			c0-17.5-14.3-31.7-32-31.7c-15.3,0-28.1,10.6-31.3,24.9c-4-2.3-8.7-3.7-13.7-3.7c-7.8,0-14.9,3.3-19.8,8.5v59.7
			c7.7,4.5,12.9,12.7,13.4,22.2l39.9,23c0-0.3,0-0.6,0-0.9c0-7.3,5.9-13.2,13.2-13.2c3.1,0,6,1.1,8.2,2.9c2.5-9.2,11-16.1,21-16.1
			c2.2,0,4.4,0.3,6.4,0.9c3.1-10,12.5-17.3,23.5-17.3c2.6,0,5,0.4,7.3,1.1l0.7-65.2C344.4,265.9,342.9,267.8,341.8,269.9z
			 M231.5,291c-1.2,0-1.3-0.8-1.3-1c0-0.8,1.2-1.7,2.1-1.7c1.2,0,1.3,0.8,1.3,1C233.7,290.2,232.4,291,231.5,291z M263.3,342.1
			c-1.2,0-1.3-0.7-1.3-0.9c0-0.9,1.4-1.6,2.2-1.6c1.2,0,1.3,0.7,1.3,0.9C265.4,341.3,264,342.1,263.3,342.1z M267.1,309.4
			c-1.1,0-1.6-0.7-1.6-1.4c0-0.8,0.7-1.6,1.8-1.6c0.6,0,1,0.2,1.2,0.4c0.3,0.3,0.5,0.6,0.5,1C268.9,308.6,268.2,309.4,267.1,309.4z
			 M269,257c-1.3,0-1.3-0.8-1.3-1c0-0.9,1.2-1.7,2.1-1.7c0.3,0,0.6,0.1,0.8,0.2c0.3,0.2,0.5,0.5,0.5,0.8
			C271.1,256.1,269.9,257,269,257z M290.9,276.4c-0.5,0-0.8-0.1-1.1-0.3c-0.3-0.2-0.5-0.6-0.5-1c0-0.8,0.7-1.6,1.8-1.6
			c0.5,0,0.8,0.1,1.1,0.3c0.3,0.2,0.5,0.6,0.5,1C292.7,275.6,292,276.4,290.9,276.4z M324.6,301.2c-1.2,0-1.3-0.7-1.3-0.9
			c0-0.9,1.4-1.6,2.2-1.6c1.2,0,1.3,0.7,1.3,0.9C326.8,300.5,325.4,301.2,324.6,301.2z"/>
		<g id="XMLID_97_">
			<path id="XMLID_98_" class="st2" d="M518.6,154.5c-5.7,0-10.3,4.6-10.3,10.3c0,5.7,4.6,10.3,10.3,10.3s10.3-4.6,10.3-10.3
				C528.9,159.1,524.3,154.5,518.6,154.5z"/>
			<path id="XMLID_99_" class="st2" d="M199.1,339.8c-5.7,0-10.3,4.6-10.3,10.3c0,5.7,4.6,10.3,10.3,10.3c5.7,0,10.3-4.6,10.3-10.3
				C209.3,344.4,204.7,339.8,199.1,339.8z"/>
			<path id="XMLID_100_" class="st2" d="M518.6,143.2c-3.8,0-7.4,1-10.6,2.8L406.2,87.2c-0.3,1.2-1,2.4-2,3.2l-8.9,11.5l102.2,59
				c-0.2,1.3-0.4,2.5-0.4,3.8c0,9.2,5.8,17,13.9,20.1v159.5l0,0l-128.7,74.3c-6.5,3.7-14.6-0.9-14.7-8.4l-4.1-292.7l-4.6,1.6
				l-4.6-1.6l-4.1,292.7c-0.1,7.5-8.2,12.1-14.7,8.4l-115-66.4c0.1-0.7,0.1-1.5,0.1-2.2c0-9.2-5.8-17-13.9-20.1V168.7l115.7-66.8
				l-8.9-11.5c-0.9-0.9-1.6-2-2-3.2l-118.4,68.4c-0.4,0.2-0.7,0.5-1.1,0.7l-3.5,2v5.1v88v21.3v3.5v0.8v54.3
				c-6.6,3.7-11,10.7-11,18.8c0,11.9,9.6,21.5,21.5,21.5c4.5,0,8.6-1.4,12-3.7l143.2,82.7c0,0,0,0,0.1,0c0.1,0.1,0.2,0.1,0.4,0.2
				l4.1,2.4l4.1-2.4c0.1-0.1,0.3-0.1,0.4-0.2c0,0,0,0,0.1,0l161.2-93.1c0.2-0.1,0.3-0.2,0.5-0.3l4.1-2.4v-5.2v-87.9v-78.2
				c6.6-3.7,11-10.7,11-18.8C540.2,152.9,530.5,143.2,518.6,143.2z M199.1,363.7c-7.6,0-13.7-6.1-13.7-13.7
				c0-7.6,6.1-13.7,13.7-13.7c7.6,0,13.7,6.1,13.7,13.7C212.8,357.6,206.6,363.7,199.1,363.7z M518.6,178.4
				c-7.6,0-13.7-6.1-13.7-13.7c0-7.6,6.1-13.7,13.7-13.7c7.6,0,13.7,6.1,13.7,13.7C532.3,172.3,526.2,178.4,518.6,178.4z"/>
		</g>
		<linearGradient id="XMLID_4_" gradientUnits="userSpaceOnUse" x1="438.4858" y1="224.1571" x2="438.4858" y2="439.2469">
			<stop  offset="0" style="stop-color:#174A77"/>
			<stop  offset="1" style="stop-color:#6CBCB6"/>
		</linearGradient>
		<path id="XMLID_104_" class="st3" d="M495.3,274.7c-2.8-12-13.6-20.9-26.6-20.9c-3.8,0-7.4,0.8-10.7,2.1
			c-2.5-17.4-17.7-30.8-36-30.8c-19.1,0-34.7,14.6-36.2,33.1c-4.2-2.5-9-4-14.2-4.4l0.8,79.9c0,0,0.1,0,0.1,0
			c5.9-12.2,18.4-20.6,32.8-20.6c20.1,0,36.4,16.3,36.4,36.4c0,1.9-0.1,3.7-0.4,5.6c1.3-0.2,2.6-0.3,3.9-0.3
			c8.3,0,15.8,3.3,21.4,8.6l38.6-22.3v-69.8C499.6,269.9,495.3,274.7,495.3,274.7z M393.9,297.7c-0.3,0-0.5,0-0.7-0.1
			c-0.3-0.1-0.6-0.4-0.6-0.8c0-0.9,1.5-1.5,2.2-1.5c0.3,0,0.5,0,0.7,0.1c0.3,0.1,0.6,0.4,0.6,0.8
			C396.1,297.1,394.6,297.7,393.9,297.7z M437.1,270.5c-1.2,0-1.3-0.7-1.3-0.9c0-0.9,1.3-1.6,2.1-1.6c1.2,0,1.3,0.7,1.3,0.9
			C439.3,269.8,437.9,270.5,437.1,270.5z M449.6,302.4c-0.3,0-0.6-0.1-0.8-0.2c-0.3-0.2-0.5-0.5-0.5-0.8c0-0.9,1.2-1.7,2.1-1.7
			c0.3,0,0.6,0.1,0.8,0.2c0.3,0.2,0.5,0.5,0.5,0.8C451.8,301.6,450.5,302.4,449.6,302.4z M475.8,299c-1.3,0-1.3-0.8-1.3-1
			c0-0.6,0.5-1,0.8-1.2c0.4-0.3,0.9-0.5,1.4-0.5c1.3,0,1.3,0.8,1.3,1C477.9,298.2,476.7,299,475.8,299z M483.7,342.1
			c-1.2,0-1.3-0.7-1.3-0.9c0-0.9,1.4-1.6,2.1-1.6c1.2,0,1.3,0.7,1.3,0.9C485.8,341.4,484.4,342.1,483.7,342.1z"/>
	</g>
	<g id="XMLID_111_">
		<g id="XMLID_112_">
			<path id="XMLID_113_" class="st2" d="M853,329.6c3,0,5.9-1.2,8-3.4c2.1-2.2,3.3-5,3.3-8.1c0-3-1.2-5.9-3.3-8.1
				c-2.1-2.2-5-3.4-8-3.4c-3,0-5.9,1.2-8,3.4c-2.1,2.2-3.3,5-3.3,8.1c0,3,1.2,5.9,3.3,8.1C847.1,328.4,850,329.6,853,329.6z"/>
			<polygon id="XMLID_115_" class="st2" points="553.5,354.7 559.3,354.7 559.3,321.2 590.8,321.2 590.8,315.2 559.3,315.2 
				559.3,287.6 594.9,287.6 594.9,281.7 553.5,281.7 			"/>
			<path id="XMLID_116_" class="st2" d="M643.6,333.9c0,10.2-10.4,15.7-20.3,15.7S603,344.1,603,334v-52.3h-6v52.2
				c0,14.1,13.5,21.6,26.2,21.6c12.7,0,26.2-7.5,26.2-21.5v-52.3h-6V333.9z"/>
			<polygon id="XMLID_117_" class="st2" points="653.6,287.6 677.4,287.6 677.4,355 683.2,355 683.2,287.6 707,287.6 707,281.6 
				653.6,281.6 			"/>
			<path id="XMLID_118_" class="st2" d="M755.3,333.9c0,10.2-10.4,15.7-20.3,15.7s-20.3-5.5-20.3-15.6v-52.3h-6v52.2
				c0,14.1,13.5,21.6,26.2,21.6c12.7,0,26.2-7.5,26.2-21.5v-52.3h-6V333.9z"/>
			<path id="XMLID_119_" class="st2" d="M792.2,326.2c7,0,12.9-2.4,17.1-7c3.7-4,5.7-9.5,5.7-15.3c0-11.1-7.8-22.3-22.8-22.3h-26
				v48.2h5.9v-42.2h20.1c11.6,0,16.9,8.5,16.9,16.3c0,7.9-5.3,16.3-16.9,16.3h-15.6v4.7l33,29.8h8.8l-31.6-28.6H792.2z"/>
			<path id="XMLID_120_" class="st2" d="M879.1,291.7c-7-7.1-16.4-11.1-26.4-11.1c-9.9,0-19.5,4-26.3,11.1
				c-7.1,7.2-10.9,16.6-10.9,26.5c0,9.9,3.9,19.3,10.9,26.5c6.8,7,16.4,11.1,26.3,11.1c10,0,19.4-3.9,26.4-11.1
				c7.1-7.2,10.9-16.6,10.9-26.5C890,308.3,886.1,298.9,879.1,291.7z M852.7,349.7c-8.3,0-16.1-3.3-22.1-9.4
				c-5.9-6-9.2-13.9-9.2-22.2c0-8.3,3.3-16.2,9.2-22.2c5.9-6,13.8-9.4,22.1-9.4c8.4,0,16.2,3.3,22.2,9.4c5.9,6,9.1,13.8,9.1,22.2
				c0,8.4-3.2,16.2-9.1,22.2C868.9,346.4,861,349.7,852.7,349.7z"/>
		</g>
		<g id="XMLID_123_">
			<polygon id="XMLID_124_" class="st2" points="559.3,196.4 583.9,233 587.6,233 612.2,196.4 612.2,257.8 618,257.8 618,184.7 
				613.1,184.7 585.7,225.1 558.4,184.7 553.5,184.7 553.5,232.9 559.3,232.9 			"/>
			<path id="XMLID_125_" class="st2" d="M649.4,258.6c12.7,0,26.2-7.5,26.2-21.5v-52.3h-6v52.2c0,10.2-10.4,15.7-20.3,15.7
				c-9.8,0-20.3-5.5-20.3-15.6v-52.3h-6v52.2C623.1,251,636.7,258.6,649.4,258.6z"/>
			<polygon id="XMLID_126_" class="st2" points="686.6,197.1 728.6,257.8 733.5,257.8 733.5,184.7 727.7,184.7 727.7,245.8 
				685.4,184.8 680.6,184.4 680.6,257.8 686.6,257.8 			"/>
			<path id="XMLID_127_" class="st2" d="M843.5,258.8c10,0,19.4-3.9,26.4-11.1c7.1-7.2,10.9-16.6,10.9-26.5
				c0-9.9-3.9-19.3-10.9-26.5c-7-7.1-16.4-11.1-26.4-11.1c-9.9,0-19.5,4-26.3,11.1c-7.1,7.2-10.9,16.6-10.9,26.5s3.9,19.3,10.9,26.5
				C824.1,254.7,833.6,258.8,843.5,258.8z M843.5,189.7c8.4,0,16.2,3.3,22.2,9.4c5.9,6,9.1,13.8,9.1,22.2c0,8.4-3.2,16.2-9.1,22.2
				c-5.9,6-13.8,9.4-22.2,9.4c-8.3,0-16.1-3.3-22.1-9.4c-5.9-6-9.2-13.9-9.2-22.2c0-8.3,3.3-16.2,9.2-22.2
				C827.4,193,835.2,189.7,843.5,189.7z"/>
			<path id="XMLID_130_" class="st2" d="M793.6,196.3c-6.6-7.5-15.9-11.5-27-11.5h-25.4v5.9h5.9h10.7h8.8
				c20.7,0,30.1,15.9,30.1,30.6c0,14.7-9.4,30.6-30.1,30.6h-19.5v0h-5.9v5.9h25.4c11.1,0,20.4-4,27-11.5c5.8-6.6,9-15.5,9-25
				C802.5,211.8,799.4,202.9,793.6,196.3z"/>
			<rect id="XMLID_131_" x="741.2" y="190.7" class="st2" width="5.9" height="42.2"/>
		</g>
	</g>
</g>
</svg>
