<svg width="233" height="35" viewBox="0 0 233 35" fill="none" xmlns="http://www.w3.org/2000/svg">
<path d="M223.242 20.904C223.638 20.9058 224.029 20.8282 224.394 20.6757C224.759 20.5232 225.089 20.2989 225.365 20.0163C225.927 19.4516 226.243 18.6874 226.243 17.8908C226.243 17.0942 225.927 16.33 225.365 15.7654C225.089 15.4841 224.759 15.2608 224.396 15.1083C224.032 14.9558 223.642 14.8772 223.248 14.8772C222.854 14.8772 222.464 14.9558 222.1 15.1083C221.737 15.2608 221.407 15.4841 221.131 15.7654C220.569 16.33 220.253 17.0942 220.253 17.8908C220.253 18.6874 220.569 19.4516 221.131 20.0163C221.406 20.2976 221.734 20.5211 222.097 20.6735C222.46 20.826 222.849 20.9044 223.242 20.904Z" fill="#3C3541"/>
<path d="M144.294 27.5198H145.845V18.6791H154.121V17.1025H145.845V9.83475H155.208V8.28395H144.294V27.5198Z" fill="#3C3541"/>
<path d="M168.039 22.0275C168.039 24.7092 165.29 26.1532 162.7 26.1532C160.109 26.1532 157.357 24.7165 157.357 22.0533V8.28763H155.78V22.0275C155.78 25.7332 159.347 27.7297 162.7 27.7297C166.053 27.7297 169.616 25.7406 169.616 22.0533V8.28763H168.039V22.0275Z" fill="#3C3541"/>
<path d="M170.689 9.83475H176.949V27.6008H178.501V9.83475H184.761V8.25816H170.689V9.83475Z" fill="#3C3541"/>
<path d="M197.489 22.0275C197.489 24.7092 194.736 26.1532 192.146 26.1532C189.555 26.1532 186.806 24.7165 186.806 22.0533V8.28763H185.229V22.0275C185.229 25.7332 188.792 27.7297 192.146 27.7297C195.499 27.7297 199.066 25.7406 199.066 22.0533V8.28763H197.489V22.0275Z" fill="#3C3541"/>
<path d="M207.224 20.0089C208.015 20.0495 208.805 19.9258 209.546 19.6456C210.286 19.3654 210.96 18.9347 211.526 18.3809C212.091 17.8271 212.536 17.162 212.831 16.4278C213.126 15.6936 213.266 14.9061 213.242 14.1151C213.242 11.1977 211.174 8.2471 207.228 8.2471H200.385V20.9445H201.936V9.82H207.224C210.29 9.82 211.687 12.0523 211.687 14.1261C211.687 16.2 210.29 18.4323 207.224 18.4323H203.127V19.6589L211.816 27.5087H214.144L205.813 20.0089H207.224Z" fill="#3C3541"/>
<path d="M230.118 10.9177C229.213 9.99408 228.133 9.26027 226.94 8.75931C225.748 8.25835 224.468 8.00031 223.174 8.00031C221.881 8.00031 220.6 8.25835 219.408 8.75931C218.216 9.26027 217.135 9.99408 216.23 10.9177C214.384 12.769 213.347 15.2766 213.347 17.8908C213.347 20.5051 214.384 23.0127 216.23 24.8639C217.136 25.7872 218.217 26.5207 219.409 27.0214C220.602 27.5221 221.882 27.7801 223.176 27.7801C224.47 27.7801 225.75 27.5221 226.943 27.0214C228.136 26.5207 229.216 25.7872 230.122 24.8639C231.97 23.0125 233.007 20.5041 233.007 17.889C233.007 15.2738 231.97 12.7654 230.122 10.9141L230.118 10.9177ZM223.161 26.2047C222.076 26.2043 221.002 25.9859 220.002 25.5626C219.003 25.1393 218.098 24.5196 217.343 23.7404C215.793 22.1879 214.922 20.0842 214.922 17.8908C214.922 15.6975 215.793 13.5937 217.343 12.0412C218.101 11.2614 219.007 10.6414 220.009 10.2181C221.01 9.79475 222.087 9.57662 223.174 9.57662C224.262 9.57662 225.338 9.79475 226.34 10.2181C227.341 10.6414 228.248 11.2614 229.006 12.0412C230.54 13.6017 231.4 15.7024 231.4 17.8908C231.4 20.0792 230.54 22.18 229.006 23.7404C228.246 24.5214 227.337 25.142 226.334 25.5653C225.33 25.9886 224.251 26.2061 223.161 26.2047Z" fill="#3C3541"/>
<path d="M52.5513 11.3413L59.033 20.9777H59.9874L66.4691 11.3413V27.5198H68.0205V8.25816H66.716L59.4973 18.8964L52.3044 8.25816H51V20.9593H52.5513V11.3413Z" fill="#3C3541"/>
<path d="M76.2857 27.7445C79.6389 27.7445 83.2022 25.7553 83.2022 22.068V8.28763H81.6288V22.0275C81.6288 24.7092 78.8762 26.1532 76.2857 26.1532C73.6952 26.1532 70.9426 24.7165 70.9426 22.0533V8.28763H69.3655V22.0275C69.3655 25.7332 72.9324 27.7445 76.2857 27.7445Z" fill="#3C3541"/>
<path d="M86.0985 11.5292L97.1642 27.5198H98.4613V8.25817H96.9136V24.3555L85.7853 8.28027L84.5214 8.19186V27.5198H86.0985V11.5292Z" fill="#3C3541"/>
<path d="M127.458 27.7813C128.754 27.785 130.037 27.5291 131.233 27.0287C132.429 26.5282 133.512 25.7934 134.418 24.8676C136.264 23.0152 137.301 20.5072 137.301 17.8927C137.301 15.2781 136.264 12.7701 134.418 10.9177C133.513 9.99397 132.432 9.26008 131.24 8.75907C130.047 8.25806 128.766 8 127.472 8C126.179 8 124.898 8.25806 123.705 8.75907C122.513 9.26008 121.432 9.99397 120.526 10.9177C118.682 12.7699 117.646 15.2772 117.646 17.8908C117.646 20.5045 118.682 23.0117 120.526 24.8639C121.43 25.7865 122.508 26.5197 123.698 27.0207C124.888 27.5216 126.166 27.7802 127.458 27.7813ZM127.458 9.5769C128.548 9.57652 129.627 9.79438 130.631 10.2176C131.635 10.6409 132.545 11.2609 133.306 12.0412C134.839 13.6026 135.697 15.703 135.697 17.8908C135.697 20.0786 134.839 22.179 133.306 23.7404C132.548 24.5204 131.641 25.1404 130.639 25.5638C129.637 25.9872 128.56 26.2053 127.472 26.2053C126.385 26.2053 125.308 25.9872 124.306 25.5638C123.304 25.1404 122.397 24.5204 121.639 23.7404C120.089 22.1879 119.219 20.0842 119.219 17.8908C119.219 15.6975 120.089 13.5937 121.639 12.0412C122.395 11.262 123.299 10.6423 124.298 10.219C125.298 9.7957 126.372 9.57734 127.458 9.5769Z" fill="#3C3541"/>
<path d="M114.284 11.3082C112.552 9.3301 110.091 8.28763 107.169 8.28763H100.484V9.83475H107.169C112.619 9.83475 115.102 14.0193 115.102 17.9055C115.102 21.7918 112.619 25.9727 107.169 25.9727H100.484V27.5235H107.169C110.091 27.5235 112.552 26.4773 114.284 24.4992C115.816 22.6424 116.654 20.3106 116.654 17.9037C116.654 15.4968 115.816 13.165 114.284 11.3082Z" fill="#3C3541"/>
<path d="M102.032 9.83475H100.481V20.9593H102.032V9.83475Z" fill="#3C3541"/>
<path d="M20.7977 34.4413C20.7977 34.292 20.7391 34.1487 20.6346 34.0428C20.5302 33.9369 20.3884 33.877 20.2402 33.8761L16.7739 33.8761L13.0387 24.0385C26.0972 22.8551 48 20.647 48 17.5033C48 14.3597 26.0972 12.1515 13.0387 10.9681L16.7739 1.13053L20.2402 1.13053C20.3889 1.13053 20.5316 1.07097 20.6367 0.964966C20.7419 0.858958 20.801 0.715187 20.801 0.56527C20.801 0.415353 20.7419 0.271571 20.6367 0.165564C20.5316 0.0595566 20.3889 0 20.2402 0L15.5147 0C15.4194 0.000534234 15.3259 0.0253699 15.2427 0.0721896C15.1596 0.119009 15.0895 0.186288 15.0392 0.267755L3.66961 9.19295L4.44681 10.264C1.70855 10.0656 8.41492e-07 9.96317 8.41492e-07 9.96317L3.73191 14.8026L3.07604 17.1331H15.5048V17.8669H3.07604L3.73191 20.1974L8.41492e-07 25.0368C8.41492e-07 25.0368 1.70855 24.9344 4.44681 24.736L3.66961 25.807L15.0392 34.7322C15.0895 34.8137 15.1596 34.881 15.2427 34.9278C15.3259 34.9746 15.4194 34.9995 15.5147 35L20.2402 35C20.3872 34.9991 20.5281 34.9401 20.6323 34.8356C20.7366 34.7311 20.796 34.5895 20.7977 34.4413ZM26.2316 17.5033C26.2316 16.0587 28.032 14.8852 30.2521 14.8852C32.4722 14.8852 34.2726 16.0587 34.2726 17.5033C34.2726 18.9479 32.4722 20.1214 30.2521 20.1214C28.032 20.1214 26.2316 18.9479 26.2316 17.5033Z" fill="url(#paint0_linear_105_22)"/>
<defs>
<linearGradient id="paint0_linear_105_22" x1="24.0016" y1="0" x2="24.0016" y2="35.0066" gradientUnits="userSpaceOnUse">
<stop stop-color="#1D4975"/>
<stop offset="1" stop-color="#71BFBA"/>
</linearGradient>
</defs>
</svg>
