<?xml version="1.0" encoding="utf-8"?>
<!-- Generator: Adobe Illustrator 25.2.0, SVG Export Plug-In . SVG Version: 6.00 Build 0)  -->
<svg version="1.1" id="Layer_1" xmlns="http://www.w3.org/2000/svg" xmlns:xlink="http://www.w3.org/1999/xlink" x="0px" y="0px"
	 viewBox="0 0 75 75" style="enable-background:new 0 0 75 75;" xml:space="preserve">
<style type="text/css">
	.st0{fill:#1D4975;}
</style>
<path id="XMLID_197_" class="st0" d="M63.5,42.4c-0.5,0-0.9,0.4-0.9,0.9v5.4l-15.1,5.8c-1.8-20.2-5.2-54-10-54
	c-4.8,0-8.2,33.8-10,54l-15.1-5.8l0-5.4c0-0.5-0.4-0.9-0.9-0.9c-0.5,0-0.9,0.4-0.9,0.9l0,7.3c0,0.3,0.2,0.6,0.4,0.7l13.7,17.6
	l1.6-1.2c-0.3,4.2-0.5,6.9-0.5,6.9l7.4-5.8l3.6,1l0-19.2h1.1l0,19.2l3.6-1l7.4,5.8c0,0-0.2-2.6-0.5-6.9l1.6,1.2l13.7-17.6
	c0.2-0.2,0.4-0.4,0.4-0.7v-7.3C64.3,42.8,63.9,42.4,63.5,42.4z M37.5,34.1c-2.2,0-4-2.8-4-6.2c0-3.4,1.8-6.2,4-6.2
	c2.2,0,4,2.8,4,6.2C41.5,31.3,39.7,34.1,37.5,34.1z"/>
</svg>
