<?xml version="1.0" encoding="utf-8"?>
<!-- Generator: Adobe Illustrator 25.2.0, SVG Export Plug-In . SVG Version: 6.00 Build 0)  -->
<svg version="1.1" id="Layer_1" xmlns="http://www.w3.org/2000/svg" xmlns:xlink="http://www.w3.org/1999/xlink" x="0px" y="0px"
	 viewBox="0 0 150 150" style="enable-background:new 0 0 150 150;" xml:space="preserve">
<style type="text/css">
	.st0{fill:url(#XMLID_2_);}
	.st1{fill:url(#XMLID_3_);}
	.st2{fill:url(#XMLID_4_);}
	.st3{fill:#3B3441;}
</style>
<g>
	<linearGradient id="XMLID_2_" gradientUnits="userSpaceOnUse" x1="75" y1="39.1708" x2="75" y2="0.4679">
		<stop  offset="0" style="stop-color:#174A77"/>
		<stop  offset="1" style="stop-color:#6CBCB6"/>
	</linearGradient>
	<path id="XMLID_35_" class="st0" d="M88.5,22.4c-0.2,0-0.5,0.2-0.5,0.5v2.8l-7.9,3C79.3,18.1,77.5,0.5,75,0.5
		c-2.5,0-4.3,17.7-5.2,28.2l-7.9-3v-2.8c0-0.2-0.2-0.5-0.5-0.5S61,22.6,61,22.9v3.8c0,0.2,0.1,0.3,0.2,0.4l7.1,9.2l0.9-0.6
		c-0.2,2.2-0.2,3.6-0.2,3.6l3.9-3l1.9,0.5v-10h0.6v10l1.9-0.5l3.9,3c0,0-0.1-1.4-0.2-3.6l0.9,0.6l7.1-9.2c0.1-0.1,0.2-0.2,0.2-0.4
		v-3.8C89,22.6,88.8,22.4,88.5,22.4z M75,18c-1.2,0-2.1-1.5-2.1-3.2s0.9-3.2,2.1-3.2c1.2,0,2.1,1.5,2.1,3.2S76.2,18,75,18z"/>
	<linearGradient id="XMLID_3_" gradientUnits="userSpaceOnUse" x1="101.5985" y1="73.0433" x2="101.5985" y2="144.8883">
		<stop  offset="0" style="stop-color:#174A77"/>
		<stop  offset="1" style="stop-color:#6CBCB6"/>
	</linearGradient>
	<path id="XMLID_38_" class="st1" d="M120.6,89.9c-0.9-4-4.5-7-8.9-7c-1.3,0-2.5,0.3-3.6,0.7c-0.8-5.8-5.9-10.3-12-10.3
		c-6.4,0-11.6,4.9-12.1,11.1c-1.4-0.8-3-1.3-4.7-1.5l0.3,26.7c0,0,0,0,0,0c2-4.1,6.1-6.9,11-6.9c6.7,0,12.2,5.4,12.2,12.2
		c0,0.6,0,1.3-0.1,1.9c0.4-0.1,0.9-0.1,1.3-0.1c2.8,0,5.3,1.1,7.2,2.9l12.9-7.4V88.8C122,88.3,120.6,89.9,120.6,89.9z M86.7,97.6
		c-0.1,0-0.2,0-0.2,0c-0.1,0-0.2-0.1-0.2-0.3c0-0.3,0.5-0.5,0.7-0.5c0.1,0,0.2,0,0.2,0c0.1,0,0.2,0.1,0.2,0.3
		C87.4,97.4,86.9,97.6,86.7,97.6z M101.1,88.5c-0.4,0-0.4-0.2-0.4-0.3c0-0.3,0.4-0.5,0.7-0.5c0.4,0,0.4,0.2,0.4,0.3
		C101.9,88.3,101.4,88.5,101.1,88.5z M105.8,99c-0.1,0.1-0.3,0.2-0.5,0.2c-0.1,0-0.2,0-0.3-0.1c-0.1-0.1-0.2-0.2-0.2-0.3
		c0-0.3,0.4-0.6,0.7-0.6c0.4,0,0.4,0.3,0.4,0.3C106,98.8,105.9,98.9,105.8,99z M114,98.1c-0.4,0-0.4-0.3-0.4-0.3
		c0-0.2,0.2-0.3,0.3-0.4c0.1-0.1,0.3-0.2,0.5-0.2c0.4,0,0.4,0.3,0.4,0.3C114.8,97.8,114.4,98.1,114,98.1z M117.1,112.3
		c-0.1,0-0.3,0.1-0.4,0.1c-0.4,0-0.4-0.2-0.4-0.3c0-0.3,0.5-0.5,0.7-0.5c0.4,0,0.4,0.2,0.4,0.3C117.4,112,117.3,112.2,117.1,112.3z"
		/>
	<linearGradient id="XMLID_4_" gradientUnits="userSpaceOnUse" x1="48.384" y1="74.0089" x2="48.384" y2="148.7255">
		<stop  offset="0" style="stop-color:#174A77"/>
		<stop  offset="1" style="stop-color:#6CBCB6"/>
	</linearGradient>
	<path id="XMLID_45_" class="st2" d="M69.3,88.3c-1.6-0.9-3.4-1.5-5.4-1.5c-2,0-3.9,0.6-5.5,1.5c0-0.1,0-0.2,0-0.3
		c0-5.9-4.8-10.6-10.7-10.6c-5.1,0-9.4,3.6-10.4,8.3c-1.3-0.8-2.9-1.2-4.6-1.2c-2.6,0-5,1.1-6.6,2.8v19.9c2.6,1.5,4.3,4.3,4.5,7.4
		l13.3,7.7c0-0.1,0-0.2,0-0.3c0-2.4,2-4.4,4.4-4.4c1,0,2,0.4,2.7,1c0.8-3.1,3.7-5.4,7-5.4c0.7,0,1.5,0.1,2.1,0.3
		c1-3.3,4.2-5.8,7.8-5.8c0.9,0,1.7,0.1,2.5,0.4l0.2-21.8C70.2,87,69.7,87.6,69.3,88.3z M32.5,95.4c-0.1,0-0.2,0-0.3-0.1
		c-0.1-0.1-0.2-0.2-0.2-0.3c0-0.3,0.4-0.6,0.7-0.6c0.4,0,0.4,0.3,0.4,0.3C33.2,95.1,32.8,95.4,32.5,95.4z M43.1,112.4
		c-0.4,0-0.4-0.2-0.4-0.3c0-0.1,0.1-0.3,0.3-0.4c0.1,0,0.3-0.1,0.4-0.1c0.4,0,0.4,0.2,0.4,0.3C43.8,112.2,43.3,112.4,43.1,112.4z
		 M44.3,101.5c-0.4,0-0.5-0.2-0.5-0.5c0-0.3,0.2-0.5,0.6-0.5c0.2,0,0.3,0.1,0.4,0.1c0.1,0.1,0.2,0.2,0.2,0.3
		C44.9,101.2,44.7,101.5,44.3,101.5z M45,84c-0.4,0-0.4-0.3-0.4-0.3c0-0.2,0.2-0.3,0.3-0.4c0.1-0.1,0.3-0.2,0.5-0.2
		c0.4,0,0.4,0.3,0.4,0.3C45.7,83.7,45.3,84,45,84z M52.3,90.5c-0.2,0-0.3,0-0.4-0.1c-0.1-0.1-0.2-0.2-0.2-0.3c0-0.3,0.2-0.5,0.6-0.5
		c0.2,0,0.3,0,0.4,0.1c0.1,0.1,0.2,0.2,0.2,0.3C52.9,90.2,52.7,90.5,52.3,90.5z M63.6,98.8c-0.4,0-0.4-0.2-0.4-0.3
		c0-0.3,0.5-0.5,0.7-0.5c0.1,0,0.2,0,0.2,0c0.1,0,0.2,0.1,0.2,0.3C64.3,98.5,63.8,98.8,63.6,98.8z"/>
	<g id="XMLID_53_">
		<path id="XMLID_54_" class="st3" d="M128.4,49.8c-1.9,0-3.4,1.5-3.4,3.4c0,1.9,1.5,3.4,3.4,3.4c1.9,0,3.4-1.5,3.4-3.4
			C131.8,51.3,130.3,49.8,128.4,49.8z"/>
		<path id="XMLID_55_" class="st3" d="M21.6,111.7c-1.9,0-3.4,1.5-3.4,3.4c0,1.9,1.5,3.4,3.4,3.4c1.9,0,3.4-1.5,3.4-3.4
			C25.1,113.2,23.5,111.7,21.6,111.7z"/>
		<path id="XMLID_56_" class="st3" d="M128.4,46c-1.3,0-2.5,0.3-3.5,0.9l-34-19.7c-0.1,0.4-0.3,0.8-0.7,1.1l-3,3.8l34.1,19.7
			c-0.1,0.4-0.1,0.8-0.1,1.3c0,3.1,1.9,5.7,4.6,6.7v53.3l0,0l-43,24.8c-2.2,1.2-4.9-0.3-4.9-2.8l-1.4-97.8L75,38l-1.5-0.5l-1.4,97.8
			c0,2.5-2.7,4-4.9,2.8l-38.4-22.2c0-0.2,0-0.5,0-0.8c0-3.1-1.9-5.7-4.6-6.7V54.5l38.6-22.3l-3-3.8c-0.3-0.3-0.5-0.7-0.7-1.1
			L19.6,50.1c-0.1,0.1-0.2,0.2-0.4,0.2L18.1,51v1.7v29.4v7.1v1.2v0.3v18.1c-2.2,1.2-3.7,3.6-3.7,6.3c0,4,3.2,7.2,7.2,7.2
			c1.5,0,2.9-0.5,4-1.2l47.8,27.6c0,0,0,0,0,0c0,0,0.1,0,0.1,0.1l1.4,0.8l1.4-0.8c0,0,0.1,0,0.1-0.1c0,0,0,0,0,0l53.9-31.1
			c0.1,0,0.1-0.1,0.2-0.1l1.4-0.8v-1.7V85.6V59.5c2.2-1.2,3.7-3.6,3.7-6.3C135.6,49.2,132.3,46,128.4,46z M21.6,119.7
			c-2.5,0-4.6-2.1-4.6-4.6c0-2.5,2.1-4.6,4.6-4.6c2.5,0,4.6,2.1,4.6,4.6C26.2,117.6,24.1,119.7,21.6,119.7z M128.4,57.8
			c-2.5,0-4.6-2.1-4.6-4.6c0-2.5,2.1-4.6,4.6-4.6c2.5,0,4.6,2.1,4.6,4.6C132.9,55.7,130.9,57.8,128.4,57.8z"/>
	</g>
</g>
</svg>
